<svg xmlns="http://www.w3.org/2000/svg" xmlns:xlink="http://www.w3.org/1999/xlink" width="100" zoomAndPan="magnify" viewBox="0 0 75.119995 45.12" height="50" preserveAspectRatio="xMidYMid meet" version="1.0"><path fill="#ffffff" d="M 4.6875 6.847656 L 69.453125 6.847656 L 69.453125 29.867188 L 4.6875 29.867188 Z M 4.6875 6.847656 " fill-opacity="1" fill-rule="nonzero"/><path fill="#000000" d="M 4.101562 6.261719 L 4.101562 30.453125 L 70.039062 30.453125 L 70.039062 6.261719 Z M 69.453125 29.867188 L 4.6875 29.867188 L 4.6875 6.847656 L 69.453125 6.847656 Z M 33.097656 28.082031 L 32.804688 28.082031 L 32.804688 8.636719 L 33.097656 8.636719 Z M 38.234375 17.0625 L 37.632812 17.0625 L 37.632812 13.414062 L 38.234375 13.414062 Z M 40.867188 15.492188 C 40.867188 15.273438 40.820312 15.105469 40.726562 14.988281 C 40.632812 14.875 40.488281 14.816406 40.296875 14.816406 L 40.261719 14.816406 C 40.148438 14.816406 40.042969 14.84375 39.941406 14.898438 C 39.839844 14.953125 39.757812 15.039062 39.695312 15.15625 C 39.632812 15.269531 39.601562 15.414062 39.601562 15.59375 L 39.601562 17.0625 L 39.027344 17.0625 L 39.027344 14.394531 L 39.535156 14.394531 L 39.535156 14.792969 C 39.617188 14.648438 39.730469 14.53125 39.875 14.449219 C 40.019531 14.363281 40.191406 14.320312 40.390625 14.320312 L 40.441406 14.320312 C 40.746094 14.320312 40.988281 14.414062 41.167969 14.601562 C 41.351562 14.789062 41.441406 15.0625 41.441406 15.414062 L 41.441406 17.0625 L 40.867188 17.0625 Z M 42.3125 16.789062 C 42.082031 16.5625 41.96875 16.234375 41.96875 15.8125 L 41.96875 15.640625 C 41.96875 15.363281 42.023438 15.125 42.128906 14.925781 C 42.234375 14.730469 42.382812 14.582031 42.574219 14.476562 C 42.765625 14.371094 42.988281 14.320312 43.238281 14.320312 L 43.292969 14.320312 C 43.539062 14.320312 43.75 14.378906 43.921875 14.496094 C 44.09375 14.617188 44.21875 14.773438 44.292969 14.964844 L 43.835938 15.171875 C 43.78125 15.0625 43.710938 14.976562 43.625 14.910156 C 43.535156 14.847656 43.421875 14.816406 43.292969 14.816406 L 43.246094 14.816406 C 43.039062 14.816406 42.871094 14.882812 42.738281 15.019531 C 42.609375 15.15625 42.542969 15.359375 42.542969 15.628906 L 42.542969 15.824219 C 42.542969 16.105469 42.609375 16.3125 42.734375 16.441406 C 42.863281 16.574219 43.03125 16.640625 43.246094 16.640625 L 43.292969 16.640625 C 43.429688 16.640625 43.546875 16.609375 43.640625 16.550781 C 43.734375 16.488281 43.808594 16.40625 43.859375 16.300781 L 44.308594 16.535156 C 44.234375 16.710938 44.105469 16.851562 43.929688 16.964844 C 43.75 17.074219 43.539062 17.132812 43.292969 17.132812 L 43.238281 17.132812 C 42.847656 17.132812 42.539062 17.019531 42.3125 16.789062 Z M 45.921875 17.132812 L 46 17.132812 C 46.246094 17.132812 46.460938 17.085938 46.640625 16.992188 C 46.824219 16.902344 46.960938 16.773438 47.054688 16.613281 L 46.636719 16.34375 C 46.574219 16.453125 46.492188 16.53125 46.386719 16.585938 C 46.285156 16.640625 46.15625 16.667969 46 16.667969 L 45.921875 16.667969 C 45.714844 16.667969 45.554688 16.601562 45.4375 16.472656 C 45.320312 16.34375 45.257812 16.152344 45.246094 15.890625 L 47.144531 15.890625 L 47.144531 15.570312 C 47.144531 15.1875 47.039062 14.886719 46.828125 14.660156 C 46.617188 14.433594 46.328125 14.320312 45.96875 14.320312 L 45.921875 14.320312 C 45.539062 14.320312 45.238281 14.4375 45.015625 14.671875 C 44.792969 14.90625 44.679688 15.230469 44.679688 15.644531 L 44.679688 15.816406 C 44.679688 16.238281 44.789062 16.5625 45.007812 16.789062 C 45.226562 17.019531 45.53125 17.132812 45.921875 17.132812 Z M 45.457031 14.964844 C 45.574219 14.847656 45.726562 14.789062 45.921875 14.789062 L 45.960938 14.789062 C 46.15625 14.789062 46.308594 14.847656 46.417969 14.960938 C 46.527344 15.070312 46.582031 15.238281 46.582031 15.453125 L 46.582031 15.488281 L 45.25 15.488281 C 45.273438 15.257812 45.339844 15.085938 45.457031 14.964844 Z M 49.101562 17.132812 C 49.320312 17.132812 49.515625 17.082031 49.6875 16.980469 C 49.859375 16.878906 49.992188 16.730469 50.09375 16.535156 C 50.191406 16.335938 50.242188 16.097656 50.242188 15.816406 L 50.242188 15.644531 C 50.242188 15.359375 50.191406 15.117188 50.09375 14.921875 C 49.992188 14.726562 49.859375 14.578125 49.6875 14.472656 C 49.515625 14.371094 49.320312 14.320312 49.101562 14.320312 L 49.070312 14.320312 C 48.867188 14.320312 48.6875 14.359375 48.539062 14.441406 C 48.390625 14.523438 48.277344 14.636719 48.191406 14.785156 L 48.191406 14.394531 L 47.6875 14.394531 L 47.6875 18.105469 L 48.261719 18.105469 L 48.261719 16.75 C 48.347656 16.871094 48.460938 16.964844 48.597656 17.03125 C 48.734375 17.097656 48.894531 17.132812 49.070312 17.132812 Z M 48.929688 16.640625 C 48.816406 16.640625 48.707031 16.613281 48.601562 16.554688 C 48.496094 16.496094 48.410156 16.40625 48.347656 16.285156 C 48.28125 16.160156 48.25 16 48.25 15.808594 L 48.25 15.644531 C 48.25 15.445312 48.28125 15.285156 48.347656 15.164062 C 48.410156 15.042969 48.496094 14.953125 48.597656 14.898438 C 48.699219 14.84375 48.8125 14.816406 48.929688 14.816406 L 48.972656 14.816406 C 49.171875 14.816406 49.335938 14.882812 49.46875 15.011719 C 49.601562 15.144531 49.667969 15.355469 49.667969 15.640625 L 49.667969 15.816406 C 49.667969 16.101562 49.601562 16.3125 49.46875 16.441406 C 49.335938 16.574219 49.171875 16.640625 48.972656 16.640625 Z M 50.984375 14.867188 L 50.417969 14.867188 L 50.417969 14.394531 L 50.984375 14.394531 L 50.984375 13.605469 L 51.558594 13.605469 L 51.558594 14.394531 L 52.429688 14.394531 L 52.363281 14.867188 L 51.558594 14.867188 L 51.558594 16.1875 C 51.558594 16.335938 51.59375 16.445312 51.664062 16.507812 C 51.734375 16.574219 51.835938 16.605469 51.976562 16.605469 L 52.429688 16.605469 L 52.429688 17.089844 L 51.917969 17.089844 C 51.582031 17.089844 51.339844 17.015625 51.199219 16.863281 C 51.054688 16.710938 50.984375 16.496094 50.984375 16.214844 Z M 52.9375 13.320312 L 53.535156 13.320312 L 53.535156 13.917969 L 52.9375 13.917969 Z M 52.949219 14.394531 L 53.523438 14.394531 L 53.523438 17.0625 L 52.949219 17.0625 Z M 54.703125 16.976562 C 54.890625 17.082031 55.105469 17.132812 55.347656 17.132812 L 55.394531 17.132812 C 55.632812 17.132812 55.851562 17.082031 56.042969 16.976562 C 56.234375 16.875 56.382812 16.726562 56.492188 16.527344 C 56.605469 16.328125 56.660156 16.089844 56.660156 15.8125 L 56.660156 15.640625 C 56.660156 15.363281 56.605469 15.125 56.492188 14.925781 C 56.382812 14.730469 56.234375 14.582031 56.042969 14.476562 C 55.851562 14.371094 55.632812 14.320312 55.394531 14.320312 L 55.347656 14.320312 C 55.105469 14.320312 54.890625 14.371094 54.703125 14.476562 C 54.511719 14.582031 54.359375 14.730469 54.25 14.925781 C 54.136719 15.125 54.082031 15.363281 54.082031 15.644531 L 54.082031 15.8125 C 54.082031 16.089844 54.136719 16.328125 54.25 16.527344 C 54.359375 16.726562 54.511719 16.875 54.703125 16.976562 Z M 54.65625 15.628906 C 54.65625 15.355469 54.722656 15.148438 54.855469 15.015625 C 54.988281 14.882812 55.152344 14.816406 55.347656 14.816406 L 55.390625 14.816406 C 55.585938 14.816406 55.753906 14.882812 55.886719 15.015625 C 56.019531 15.148438 56.082031 15.355469 56.082031 15.628906 L 56.082031 15.824219 C 56.082031 16.097656 56.019531 16.300781 55.886719 16.4375 C 55.753906 16.574219 55.585938 16.640625 55.390625 16.640625 L 55.347656 16.640625 C 55.152344 16.640625 54.988281 16.574219 54.855469 16.4375 C 54.722656 16.300781 54.65625 16.097656 54.65625 15.824219 Z M 59.636719 15.414062 L 59.636719 17.0625 L 59.0625 17.0625 L 59.0625 15.492188 C 59.0625 15.273438 59.015625 15.105469 58.921875 14.988281 C 58.828125 14.875 58.683594 14.816406 58.492188 14.816406 L 58.457031 14.816406 C 58.34375 14.816406 58.238281 14.84375 58.136719 14.898438 C 58.035156 14.953125 57.953125 15.039062 57.890625 15.15625 C 57.828125 15.269531 57.796875 15.414062 57.796875 15.59375 L 57.796875 17.0625 L 57.222656 17.0625 L 57.222656 14.394531 L 57.730469 14.394531 L 57.730469 14.792969 C 57.8125 14.648438 57.925781 14.53125 58.074219 14.449219 C 58.21875 14.363281 58.386719 14.320312 58.585938 14.320312 L 58.640625 14.320312 C 58.941406 14.320312 59.183594 14.414062 59.367188 14.601562 C 59.546875 14.789062 59.636719 15.0625 59.636719 15.414062 Z M 39.953125 18.929688 C 39.710938 18.730469 39.382812 18.628906 38.96875 18.628906 L 37.632812 18.628906 L 37.632812 22.28125 L 38.234375 22.28125 L 38.234375 20.996094 L 38.96875 20.996094 C 39.382812 20.996094 39.710938 20.898438 39.953125 20.703125 C 40.191406 20.507812 40.3125 20.226562 40.3125 19.867188 L 40.3125 19.757812 C 40.3125 19.40625 40.191406 19.128906 39.953125 18.929688 Z M 39.710938 19.882812 C 39.710938 20.089844 39.644531 20.242188 39.503906 20.339844 C 39.367188 20.4375 39.183594 20.488281 38.953125 20.488281 L 38.234375 20.488281 L 38.234375 19.144531 L 38.953125 19.144531 C 39.183594 19.144531 39.367188 19.195312 39.503906 19.292969 C 39.644531 19.390625 39.710938 19.539062 39.710938 19.746094 Z M 42.078125 19.578125 L 42.351562 19.578125 L 42.351562 20.109375 L 42.085938 20.109375 C 41.957031 20.109375 41.839844 20.140625 41.730469 20.195312 C 41.621094 20.25 41.53125 20.335938 41.464844 20.457031 C 41.398438 20.578125 41.363281 20.738281 41.363281 20.933594 L 41.363281 22.28125 L 40.789062 22.28125 L 40.789062 19.609375 L 41.296875 19.609375 L 41.296875 20.117188 C 41.359375 19.953125 41.453125 19.824219 41.574219 19.726562 C 41.695312 19.628906 41.863281 19.578125 42.078125 19.578125 Z M 44.53125 19.695312 C 44.339844 19.589844 44.121094 19.535156 43.882812 19.535156 L 43.835938 19.535156 C 43.59375 19.535156 43.378906 19.589844 43.191406 19.695312 C 43 19.796875 42.847656 19.949219 42.738281 20.144531 C 42.625 20.339844 42.570312 20.582031 42.570312 20.863281 L 42.570312 21.027344 C 42.570312 21.308594 42.625 21.546875 42.738281 21.742188 C 42.847656 21.941406 43 22.09375 43.191406 22.195312 C 43.378906 22.296875 43.59375 22.347656 43.835938 22.347656 L 43.882812 22.347656 C 44.121094 22.347656 44.339844 22.296875 44.53125 22.195312 C 44.722656 22.09375 44.871094 21.941406 44.980469 21.742188 C 45.089844 21.546875 45.148438 21.308594 45.148438 21.027344 L 45.148438 20.855469 C 45.148438 20.578125 45.089844 20.339844 44.980469 20.144531 C 44.871094 19.949219 44.722656 19.796875 44.53125 19.695312 Z M 44.570312 21.039062 C 44.570312 21.3125 44.503906 21.519531 44.375 21.65625 C 44.242188 21.789062 44.074219 21.859375 43.875 21.859375 L 43.835938 21.859375 C 43.640625 21.859375 43.476562 21.789062 43.34375 21.65625 C 43.210938 21.519531 43.144531 21.3125 43.144531 21.039062 L 43.144531 20.847656 C 43.144531 20.570312 43.210938 20.367188 43.34375 20.234375 C 43.476562 20.101562 43.640625 20.03125 43.835938 20.03125 L 43.875 20.03125 C 44.074219 20.03125 44.242188 20.101562 44.375 20.234375 C 44.503906 20.367188 44.570312 20.570312 44.570312 20.847656 Z M 47.613281 20.007812 C 47.4375 19.695312 47.144531 19.535156 46.734375 19.535156 L 46.699219 19.535156 C 46.472656 19.535156 46.273438 19.589844 46.101562 19.699219 C 45.933594 19.808594 45.800781 19.957031 45.707031 20.152344 C 45.613281 20.347656 45.5625 20.574219 45.5625 20.832031 L 45.5625 20.972656 C 45.5625 21.230469 45.613281 21.453125 45.707031 21.648438 C 45.800781 21.84375 45.933594 21.996094 46.101562 22.101562 C 46.273438 22.210938 46.472656 22.265625 46.699219 22.265625 L 46.734375 22.265625 C 47.089844 22.265625 47.359375 22.136719 47.539062 21.882812 L 47.539062 22.160156 C 47.539062 22.664062 47.316406 22.917969 46.871094 22.917969 L 46.804688 22.917969 C 46.632812 22.917969 46.496094 22.890625 46.394531 22.839844 C 46.289062 22.792969 46.203125 22.707031 46.132812 22.59375 L 45.722656 22.902344 C 45.820312 23.066406 45.953125 23.1875 46.125 23.273438 C 46.296875 23.355469 46.515625 23.398438 46.78125 23.398438 L 46.890625 23.398438 C 47.285156 23.398438 47.589844 23.289062 47.800781 23.070312 C 48.011719 22.855469 48.121094 22.546875 48.121094 22.144531 L 48.121094 19.609375 L 47.613281 19.609375 Z M 47.550781 20.964844 C 47.550781 21.210938 47.488281 21.40625 47.363281 21.554688 C 47.242188 21.699219 47.078125 21.773438 46.871094 21.773438 L 46.824219 21.773438 C 46.609375 21.773438 46.445312 21.703125 46.324219 21.558594 C 46.199219 21.414062 46.140625 21.21875 46.140625 20.972656 L 46.140625 20.824219 C 46.140625 20.578125 46.199219 20.386719 46.324219 20.242188 C 46.445312 20.101562 46.609375 20.03125 46.824219 20.03125 L 46.871094 20.03125 C 47.078125 20.03125 47.242188 20.105469 47.363281 20.25 C 47.488281 20.394531 47.550781 20.589844 47.550781 20.835938 Z M 50.117188 19.578125 L 50.386719 19.578125 L 50.386719 20.109375 L 50.121094 20.109375 C 49.996094 20.109375 49.878906 20.140625 49.769531 20.195312 C 49.660156 20.25 49.570312 20.335938 49.503906 20.457031 C 49.433594 20.578125 49.402344 20.738281 49.402344 20.933594 L 49.402344 22.28125 L 48.824219 22.28125 L 48.824219 19.609375 L 49.332031 19.609375 L 49.332031 20.117188 C 49.398438 19.953125 49.492188 19.824219 49.613281 19.726562 C 49.730469 19.628906 49.898438 19.578125 50.117188 19.578125 Z M 51.832031 19.535156 L 51.75 19.535156 C 51.492188 19.535156 51.269531 19.589844 51.085938 19.695312 C 50.902344 19.800781 50.769531 19.949219 50.691406 20.132812 L 51.136719 20.359375 C 51.199219 20.234375 51.277344 20.140625 51.378906 20.085938 C 51.476562 20.035156 51.601562 20.007812 51.75 20.007812 L 51.808594 20.007812 C 52.164062 20.007812 52.34375 20.203125 52.34375 20.601562 L 52.34375 20.621094 L 51.394531 20.746094 C 51.132812 20.78125 50.929688 20.867188 50.792969 21.007812 C 50.65625 21.148438 50.585938 21.328125 50.585938 21.546875 C 50.585938 21.800781 50.664062 21.996094 50.820312 22.136719 C 50.976562 22.277344 51.199219 22.347656 51.484375 22.347656 L 51.523438 22.347656 C 51.71875 22.347656 51.898438 22.304688 52.054688 22.222656 C 52.210938 22.136719 52.332031 22.019531 52.410156 21.875 L 52.410156 22.28125 L 52.917969 22.28125 L 52.917969 20.589844 C 52.917969 20.246094 52.824219 19.984375 52.640625 19.804688 C 52.457031 19.625 52.1875 19.535156 51.832031 19.535156 Z M 52.34375 21.191406 C 52.34375 21.402344 52.28125 21.574219 52.160156 21.699219 C 52.039062 21.828125 51.875 21.890625 51.667969 21.890625 L 51.617188 21.890625 C 51.464844 21.890625 51.351562 21.855469 51.269531 21.789062 C 51.1875 21.71875 51.144531 21.628906 51.144531 21.507812 C 51.144531 21.390625 51.179688 21.304688 51.253906 21.25 C 51.324219 21.191406 51.449219 21.152344 51.632812 21.128906 L 52.34375 21.023438 Z M 57.363281 19.820312 C 57.53125 20.007812 57.613281 20.277344 57.613281 20.632812 L 57.613281 22.28125 L 57.039062 22.28125 L 57.039062 20.710938 C 57.039062 20.492188 57 20.324219 56.917969 20.207031 C 56.835938 20.089844 56.707031 20.03125 56.527344 20.03125 L 56.488281 20.03125 C 56.390625 20.03125 56.292969 20.058594 56.203125 20.117188 C 56.109375 20.171875 56.035156 20.257812 55.976562 20.371094 C 55.917969 20.488281 55.890625 20.632812 55.890625 20.808594 L 55.890625 22.28125 L 55.316406 22.28125 L 55.316406 20.710938 C 55.316406 20.492188 55.273438 20.324219 55.191406 20.207031 C 55.109375 20.089844 54.980469 20.03125 54.804688 20.03125 L 54.761719 20.03125 C 54.664062 20.03125 54.570312 20.058594 54.476562 20.117188 C 54.382812 20.171875 54.308594 20.257812 54.253906 20.371094 C 54.195312 20.488281 54.167969 20.632812 54.167969 20.808594 L 54.167969 22.28125 L 53.589844 22.28125 L 53.589844 19.609375 L 54.097656 19.609375 L 54.097656 20.007812 C 54.179688 19.859375 54.285156 19.746094 54.417969 19.664062 C 54.554688 19.578125 54.710938 19.535156 54.890625 19.535156 L 54.941406 19.535156 C 55.34375 19.535156 55.621094 19.703125 55.777344 20.03125 C 55.859375 19.878906 55.972656 19.757812 56.117188 19.671875 C 56.261719 19.582031 56.429688 19.535156 56.621094 19.535156 L 56.667969 19.535156 C 56.960938 19.535156 57.191406 19.632812 57.363281 19.820312 Z M 57.363281 19.820312 " fill-opacity="1" fill-rule="nonzero"/><path fill="#000000" d="M 16.675781 22.320312 L 16.675781 26.027344 L 17.726562 26.027344 L 17.726562 22.320312 Z M 8.421875 22.3125 L 8.421875 26.027344 L 9.480469 26.027344 L 9.480469 23.207031 L 10.300781 23.207031 C 10.570312 23.207031 10.765625 23.273438 10.894531 23.414062 C 11.0625 23.589844 11.128906 23.875 11.128906 24.398438 L 11.128906 26.027344 L 12.15625 26.027344 L 12.15625 23.976562 C 12.15625 22.511719 11.21875 22.3125 10.304688 22.3125 L 8.421875 22.3125 M 18.367188 22.320312 L 18.367188 26.027344 L 20.066406 26.027344 C 20.972656 26.027344 21.269531 25.875 21.589844 25.539062 C 21.816406 25.300781 21.960938 24.78125 21.960938 24.214844 C 21.960938 23.691406 21.839844 23.226562 21.621094 22.9375 C 21.234375 22.421875 20.675781 22.320312 19.839844 22.320312 Z M 19.40625 23.125 L 19.855469 23.125 C 20.511719 23.125 20.933594 23.417969 20.933594 24.179688 C 20.933594 24.941406 20.511719 25.234375 19.855469 25.234375 L 19.40625 25.234375 Z M 15.164062 22.320312 L 14.289062 25.257812 L 13.449219 22.320312 L 12.316406 22.320312 L 13.515625 26.027344 L 15.027344 26.027344 L 16.234375 22.320312 Z M 22.449219 26.027344 L 23.5 26.027344 L 23.5 22.320312 L 22.449219 22.320312 Z M 25.390625 22.320312 L 23.925781 26.027344 L 24.960938 26.027344 L 25.195312 25.371094 L 26.925781 25.371094 L 27.148438 26.027344 L 28.269531 26.027344 L 26.792969 22.320312 Z M 26.074219 22.996094 L 26.710938 24.734375 L 25.417969 24.734375 Z M 26.074219 22.996094 " fill-opacity="1" fill-rule="nonzero"/><path fill="#76b900" d="M 15.289062 13.632812 L 15.289062 12.742188 C 15.375 12.734375 15.460938 12.730469 15.550781 12.726562 C 17.992188 12.648438 19.59375 14.820312 19.59375 14.820312 C 19.59375 14.820312 17.863281 17.21875 16.011719 17.21875 C 15.742188 17.21875 15.503906 17.175781 15.289062 17.105469 L 15.289062 14.402344 C 16.238281 14.515625 16.429688 14.9375 17 15.886719 L 18.273438 14.816406 C 18.273438 14.816406 17.34375 13.601562 15.78125 13.601562 C 15.609375 13.601562 15.449219 13.613281 15.289062 13.632812 M 15.289062 10.6875 L 15.289062 12.019531 C 15.375 12.011719 15.464844 12.007812 15.550781 12.003906 C 18.945312 11.890625 21.160156 14.78125 21.160156 14.78125 C 21.160156 14.78125 18.617188 17.867188 15.972656 17.867188 C 15.730469 17.867188 15.5 17.84375 15.289062 17.804688 L 15.289062 18.628906 C 15.472656 18.652344 15.660156 18.664062 15.855469 18.664062 C 18.320312 18.664062 20.101562 17.410156 21.824219 15.925781 C 22.113281 16.152344 23.28125 16.707031 23.523438 16.953125 C 21.882812 18.324219 18.0625 19.425781 15.894531 19.425781 C 15.6875 19.425781 15.484375 19.414062 15.289062 19.394531 L 15.289062 20.550781 L 24.648438 20.550781 L 24.648438 10.6875 Z M 15.289062 17.105469 L 15.289062 17.804688 C 13.011719 17.402344 12.378906 15.039062 12.378906 15.039062 C 12.378906 15.039062 13.472656 13.828125 15.289062 13.632812 L 15.289062 14.402344 C 15.285156 14.402344 15.285156 14.402344 15.285156 14.402344 C 14.332031 14.289062 13.585938 15.175781 13.585938 15.175781 C 13.585938 15.175781 14.003906 16.671875 15.289062 17.105469 M 11.242188 14.933594 C 11.242188 14.933594 12.59375 12.945312 15.289062 12.742188 L 15.289062 12.019531 C 12.300781 12.257812 9.714844 14.78125 9.714844 14.78125 C 9.714844 14.78125 11.179688 19.007812 15.289062 19.394531 L 15.289062 18.628906 C 12.273438 18.25 11.242188 14.933594 11.242188 14.933594 Z M 11.242188 14.933594 " fill-opacity="1" fill-rule="nonzero"/></svg>